<!DOCTYPE svg PUBLIC "-//W3C//DTD SVG 1.1//EN" "http://www.w3.org/Graphics/SVG/1.1/DTD/svg11.dtd">
<!-- Uploaded to: SVG Repo, www.svgrepo.com, Transformed by: SVG Repo Mixer Tools -->
<svg fill="#4D2F6B" width="64px" height="64px" viewBox="0 0 100 100" xmlns="http://www.w3.org/2000/svg" stroke="#4D2F6B">
<g id="SVGRepo_bgCarrier" stroke-width="0"/>
<g id="SVGRepo_tracerCarrier" stroke-linecap="round" stroke-linejoin="round"/>
<g id="SVGRepo_iconCarrier">
<path d="M56.19,20.52a1.73,1.73,0,0,0-2.47,0l-2.47,2.25a1.62,1.62,0,0,0,0,2.43l4.21,4.08a1.1,1.1,0,0,1-.82,1.9H31.83A1.92,1.92,0,0,0,30,32.92v3.46a1.85,1.85,0,0,0,1.83,1.74H54.64a1.12,1.12,0,0,1,.82,1.9L51.25,44.1a1.62,1.62,0,0,0,0,2.43L53.72,49a1.72,1.72,0,0,0,2.47,0L69.65,36a1.62,1.62,0,0,0,0-2.43ZM44,51.05a1.73,1.73,0,0,1,2.48,0L49,53.3a1.62,1.62,0,0,1,0,2.43L44.74,59.8a1.1,1.1,0,0,0,.82,1.91H68.37a1.92,1.92,0,0,1,1.83,1.73v3.47a1.85,1.85,0,0,1-1.83,1.73H45.56a1.12,1.12,0,0,0-.82,1.91L49,74.63a1.61,1.61,0,0,1,0,2.42l-2.47,2.43a1.74,1.74,0,0,1-2.48,0l-13.45-13a1.62,1.62,0,0,1,0-2.43Z" fill-rule="evenodd"/>
</g>
</svg>